Coordinates
version=1
nRows=8
nColumns=63
inDegrees=yes

Units are S.I. units (second, meters, Newtons, ...)
If the header above contains a line with 'inDegrees', this indicates whether rotational values are in degrees (yes) or radians (no).

endheader
time	pelvis_tilt	pelvis_list	pelvis_rotation	pelvis_tx	pelvis_ty	pelvis_tz	hip_flexion_r	hip_adduction_r	hip_rotation_r	knee_angle_r	knee_angle_r_beta	ankle_angle_r	subtalar_angle_r	mtp_angle_r	hip_flexion_l	hip_adduction_l	hip_rotation_l	knee_angle_l	knee_angle_l_beta	ankle_angle_l	subtalar_angle_l	mtp_angle_l	L5_S1_Flex_Ext	L5_S1_Lat_Bending	L5_S1_axial_rotation	L4_L5_Flex_Ext	L4_L5_Lat_Bending	L4_L5_axial_rotation	L3_L4_Flex_Ext	L3_L4_Lat_Bending	L3_L4_axial_rotation	L2_L3_Flex_Ext	L2_L3_Lat_Bending	L2_L3_axial_rotation	L1_L2_Flex_Ext	L1_L2_Lat_Bending	L1_L2_axial_rotation	L1_T12_Flex_Ext	L1_T12_Lat_Bending	L1_T12_axial_rotation	Abs_r3	Abs_r2	Abs_r1	Abs_t1	Abs_t2	neck_flexion	neck_bending	neck_rotation	arm_flex_r	arm_add_r	arm_rot_r	elbow_flex_r	pro_sup_r	wrist_flex_r	wrist_dev_r	arm_flex_l	arm_add_l	arm_rot_l	elbow_flex_l	pro_sup_l	wrist_flex_l	wrist_dev_l
2.166667	1.259908	-9.173718	91.575826	0.332359	0.817268	0.546684	0.413205	2.443680	-2.822373	10.408442	0.181662	30.638909	12.693912	0.000000	4.647653	-6.101991	7.005467	17.971985	0.313670	29.502197	-5.964504	0.000000	-0.128045	0.832852	2.423593	-0.237793	1.107693	2.575068	-0.210366	2.024995	2.575068	-0.146343	2.024995	2.120644	-0.118903	1.698351	1.969170	-0.073165	1.290087	1.817695	-0.914615	9.421384	13.479298	0.000000	0.000000	15.616190	-1.490256	0.093262	2.123383	-16.976520	34.808761	24.199180	75.149432	-8.633961	-1.405056	27.634500	-2.910784	27.842683	149.776270	79.239076	1.888773	-16.389183
2.183333	1.189658	-9.232817	91.599526	0.332628	0.816699	0.546320	0.544825	2.397065	-3.046514	10.608858	0.185159	30.841634	12.760809	0.000000	4.638340	-6.085392	6.800997	17.881693	0.312094	29.634536	-5.755598	0.000000	-0.117116	0.821242	2.387422	-0.217496	1.092251	2.536635	-0.192410	1.996767	2.536635	-0.133852	1.996767	2.088994	-0.108754	1.674676	1.939780	-0.066920	1.272103	1.790566	-0.836547	9.290049	13.278123	0.000000	0.000000	15.611258	-1.403225	0.333939	2.165368	-16.865006	35.584940	24.074533	75.764704	-9.018378	-1.619480	27.123873	-3.276189	27.480647	149.761893	80.041859	-2.322401	-15.982591
2.200000	1.089859	-9.298266	91.614521	0.332937	0.816290	0.545939	0.600622	2.340104	-2.958937	10.634934	0.185615	30.838026	12.478121	0.000000	4.594748	-6.048578	6.557506	17.697308	0.308876	29.661976	-5.469365	0.000000	-0.105956	0.807092	2.344383	-0.196770	1.073432	2.490907	-0.174075	1.962363	2.490907	-0.121097	1.962363	2.051335	-0.098390	1.645822	1.904811	-0.060543	1.250185	1.758287	-0.756831	9.129983	13.038756	0.000000	0.000000	15.566428	-1.391490	0.674382	2.238945	-16.743814	36.357747	23.945081	76.037224	-9.361760	-1.860900	26.755633	-3.574389	26.630951	149.739006	81.181444	-6.583693	-15.304837
2.216667	0.968516	-9.357125	91.627562	0.333252	0.816077	0.545571	0.568821	2.278126	-2.552219	10.485068	0.182999	30.628570	11.835429	0.000000	4.506935	-5.995062	6.290872	17.416212	0.303970	29.578817	-5.117603	0.000000	-0.095986	0.791403	2.298030	-0.178255	1.052566	2.441657	-0.157695	1.924218	2.441657	-0.109702	1.924218	2.010777	-0.089132	1.613830	1.867150	-0.054846	1.225884	1.723523	-0.685617	8.952513	12.780955	0.000000	0.000000	15.462866	-1.499833	1.042229	2.314106	-16.624446	37.006363	23.840157	75.918125	-9.630483	-2.110212	26.596654	-3.782918	25.269008	149.711578	82.621609	-10.495229	-14.421707
2.233333	0.833733	-9.402357	91.648283	0.333541	0.816087	0.545253	0.449030	2.213560	-1.897850	10.165124	0.177415	30.246681	10.918903	0.000000	4.380622	-5.927273	6.030664	17.055347	0.297672	29.396639	-4.735768	0.000000	-0.087998	0.774897	2.249205	-0.163421	1.030614	2.389780	-0.144572	1.884086	2.389780	-0.100573	1.884086	1.968054	-0.081715	1.580171	1.827479	-0.050282	1.200316	1.686904	-0.628559	8.765795	12.509404	0.000000	0.000000	15.287233	-1.703079	1.403478	2.390047	-16.512448	37.494604	23.757631	75.512736	-9.820212	-2.330677	26.725912	-3.899541	23.357488	149.662301	84.282381	-13.461444	-13.456649
2.250000	0.687911	-9.428926	91.667105	0.333810	0.816342	0.545020	0.254904	2.143877	-1.058843	9.704816	0.169381	29.739800	9.815893	0.000000	4.217801	-5.851373	5.732380	16.626320	0.290184	29.144627	-4.273376	0.000000	-0.083303	0.758172	2.202595	-0.154701	1.008368	2.340258	-0.136858	1.843419	2.340258	-0.095207	1.843419	1.927271	-0.077355	1.546064	1.789609	-0.047599	1.174408	1.651947	-0.595022	8.576591	12.250174	0.000000	0.000000	15.033492	-1.999269	1.760746	2.465825	-16.415865	37.808937	23.699770	74.854134	-9.918238	-2.489433	27.272838	-3.922508	20.926658	149.564131	85.823405	-14.837606	-12.326470
2.266667	0.542664	-9.447440	91.680224	0.334037	0.816807	0.544837	0.003230	2.074427	-0.074710	9.116611	0.159115	29.144017	8.576100	0.000000	4.033677	-5.771143	5.434460	16.145414	0.281791	28.848009	-3.790602	0.000000	-0.079936	0.742235	2.159210	-0.148450	0.987173	2.294161	-0.131328	1.804671	2.294161	-0.091359	1.804671	1.889309	-0.074229	1.513566	1.754358	-0.045676	1.149723	1.619408	-0.570978	8.396315	12.008879	0.000000	0.000000	14.719649	-2.384923	2.064101	2.521835	-16.341666	37.925423	23.686990	73.979185	-9.928290	-2.579089	28.246764	-3.965816	18.198873	149.426031	87.267249	-14.815233	-11.242399
2.283333	0.392728	-9.468912	91.679931	0.334235	0.817464	0.544723	-0.268500	1.997797	1.008136	8.449862	0.147478	28.513825	7.252162	0.000000	3.854378	-5.681899	5.113360	15.645553	0.273066	28.528656	-3.273274	0.000000	-0.077829	0.727147	2.120742	-0.144536	0.967106	2.253289	-0.127865	1.767986	2.253289	-0.088950	1.767986	1.855649	-0.072272	1.482799	1.723103	-0.044471	1.126351	1.590557	-0.555923	8.225635	11.794932	0.000000	0.000000	14.379637	-2.840414	2.392191	2.575854	-16.295625	37.893669	23.707541	72.921454	-9.825894	-2.580676	29.730956	-4.041280	15.231093	149.217060	88.185524	-13.010338	-9.925967
